<svg xmlns="http://www.w3.org/2000/svg" viewBox="0 0 255.12 255.12"><defs><style>.cls-1{fill:#fff;fill-rule:evenodd;}</style></defs><g id="Layer_2" data-name="Layer 2"><g id="Layer_1-2" data-name="Layer 1"><g id="Layer_2-2" data-name="Layer 2"><g id="_1" data-name=" 1"><path class="cls-1" d="M130.63,88.78a42.67,42.67,0,0,1,4.36.59l-.23-27.8,9-61.57c8.14,2,17.51,6.78,25.11,11.48L146.45,65.41C142,70.29,141,78.8,140.56,90.9a36.81,36.81,0,0,1,4.12,1.7l7-26.91L176.18,8.53c7.35,4,15.16,11.08,21.33,17.53L161.85,72.42c-5.49,3.58-8.79,11.51-12.35,23.1A38.59,38.59,0,0,1,153,98.26l13.8-24.19,38.54-48.85c6.06,5.79,11.78,14.64,16,22.5L175,83.24c-6.27,2-11.48,8.84-17.83,19.14a39.17,39.17,0,0,1,2.66,3.49L179.31,86l49.87-37.21c4.36,7.16,7.59,17.17,9.6,25.87L184.86,97c-6.55.41-13.41,5.57-22.19,13.86a37.67,37.67,0,0,1,1.68,4.11l24-14.1,57.8-23.07c2.36,8,2.88,18.56,2.62,27.43l-57.9,7.59c-6.45-1.37-14.36,1.92-25,7.64a37.55,37.55,0,0,1,.56,4.37l26.8-7.42,61.72-7.28c.2,8.38-2,18.67-4.58,27.22l-57.89-7.65c-5.86-3-14.36-1.88-26.14.91a42.67,42.67,0,0,1-.59,4.36l27.8-.23,61.64,9c-2,8.14-6.78,17.51-11.48,25.11l-53.93-22.37c-4.89-4.42-13.39-5.49-25.49-5.9a38.8,38.8,0,0,1-1.7,4.12l26.91,7,57.16,24.6c-4,7.29-11.09,15.1-17.53,21.27L182.7,161.85c-3.58-5.49-11.51-8.81-23.1-12.35a38.59,38.59,0,0,1-2.74,3.49l24.21,13.71,48.84,38.55c-5.79,6.06-14.64,11.78-22.5,16l-35.52-46.34c-2-6.27-8.83-11.48-19.13-17.83a40.81,40.81,0,0,1-3.5,2.66l19.82,19.5,37.21,49.87c-7.16,4.36-17.17,7.59-25.87,9.6l-22.27-53.85c-.35-6.58-5.57-13.37-13.86-22.19a38.51,38.51,0,0,1-4.11,1.68l14.1,24,23,57.8c-8,2.36-18.56,2.88-27.43,2.62l-7.59-57.9c1.37-6.45-1.92-14.36-7.64-25a38,38,0,0,1-4.38.56l7.43,26.8L145,254.88c-8.38.2-18.67-2-27.23-4.58l7.66-57.89c3-5.86,1.87-14.36-.91-26.14a42.67,42.67,0,0,1-4.36-.59l.23,27.8-9,61.64c-8.15-2-17.51-6.78-25.11-11.48l22.38-53.93c4.4-4.89,5.49-13.39,5.89-25.49a38,38,0,0,1-4.12-1.7l-7,26.91L78.94,246.59c-7.36-4-15.16-11.09-21.33-17.53L93.27,182.7c5.49-3.58,8.8-11.51,12.34-23.1a39.9,39.9,0,0,1-3.48-2.74l-13.8,24.19L49.79,230c-6.06-5.79-11.78-14.64-16-22.5l46.35-35.52c6.27-2,11.48-8.83,17.83-19.13a40.81,40.81,0,0,1-2.66-3.5L75.81,169.12,25.94,206.33c-4.36-7.16-7.59-17.17-9.6-25.87l53.91-22.31c6.59-.35,13.38-5.57,22.2-13.86a38.51,38.51,0,0,1-1.68-4.11l-24,14.14L9,177.35c-2.36-8-2.88-18.56-2.62-27.43l57.9-7.59c6.44,1.37,14.36-1.92,25-7.64a40.52,40.52,0,0,1-.56-4.39L62,137.72.16,145c-.16-8.38,2-18.66,4.59-27.22l57.89,7.65c5.86,3,14.36,1.88,26.14-.9a42.86,42.86,0,0,1,.59-4.37l-27.8.24L0,111.4c2-8.15,6.78-17.51,11.48-25.11l53.93,22.37c4.88,4.41,13.39,5.48,25.49,5.9a36.05,36.05,0,0,1,1.7-4.12l-26.91-6.91L8.53,78.94c4-7.36,11.08-15.16,17.53-21.33L72.42,93.27c3.58,5.49,11.51,8.8,23.1,12.34a39.9,39.9,0,0,1,2.74-3.48L74.07,88.33,25.17,49.79C31,43.73,39.8,38,47.66,33.78L83.19,80.13C85.22,86.4,92,91.61,102.32,98a39.31,39.31,0,0,1,3.5-2.66L86,75.81,48.79,25.94C56,21.58,66,18.35,74.66,16.34L97,70.25c.41,6.56,5.57,13.42,13.86,22.2a37.67,37.67,0,0,1,4.11-1.68l-14.14-24L77.77,9c8-2.36,18.56-2.88,27.43-2.62l7.6,57.9c-1.37,6.44,1.91,14.36,7.63,25a37.89,37.89,0,0,1,4.39-.56L117.44,62,110.15.16c8.38-.16,18.67,2,27.23,4.59l-7.65,57.89C126.72,68.5,127.86,77,130.63,88.78ZM127.56,118a9.6,9.6,0,1,0,9.6,9.6A9.6,9.6,0,0,0,127.56,118Z"/></g></g></g></g></svg>